<?xml version="1.0" encoding="UTF-8"?><svg id="Layer_1" xmlns="http://www.w3.org/2000/svg" viewBox="0 0 103.382 103.382"><defs><style>.cls-1{fill:#dff350;}.cls-2{fill:#4f7157;stroke:#dff350;stroke-miterlimit:10;stroke-width:3px;}</style></defs><circle class="cls-2" cx="51.691" cy="51.691" r="50.191"/><path class="cls-1" d="M44,23c1.838-2.451,3.677-3.776,5.285-4.664s3.418-1.336,5.255-1.336h1.46c.358-.072,4.634,0,5,0h6v11h-6l-2.126,.304c-.892,.127-1.718,.541-2.355,1.177h0c-.972,.972-1.519,2.291-1.519,3.667v3.852s0,6,0,6h12l-2,13h-10v31h-14v-31h-11v-13h11v-6.645c0-3.547,.572-7.07,1.693-10.434h0c.204-.612,.474-1.199,.806-1.752l.993-1.655"/></svg>