<svg xmlns="http://www.w3.org/2000/svg" width="256" height="256" viewBox="0 0 100 100"><rect width="100" height="100" rx="50" fill="#4f7157"></rect><path d="M15.94 70.16L12.80 70.16L12.80 29.84L15.80 29.84L32.32 65.51L48.67 29.84L51.78 29.84L51.78 70.10L48.61 70.10L48.61 37.26L33.61 70.16L30.97 70.16L15.94 37.26L15.94 70.16ZM62.84 70.16L59.62 70.16L59.62 29.84L74.82 29.84Q75.41 29.84 76.10 29.88Q76.78 29.92 77.54 30.06L77.54 30.06Q80.56 30.54 82.73 32.23Q84.90 33.93 86.05 36.49Q87.20 39.05 87.20 42.13L87.20 42.13Q87.20 45.24 86.05 47.80Q84.90 50.36 82.73 52.06Q80.56 53.75 77.54 54.23L77.54 54.23Q76.78 54.34 76.10 54.40Q75.41 54.45 74.82 54.45L74.82 54.45L62.84 54.45L62.84 70.16ZM62.84 32.98L62.84 51.29L74.77 51.29Q75.27 51.29 75.93 51.23Q76.59 51.18 77.26 51.06L77.26 51.06Q79.44 50.62 80.90 49.29Q82.35 47.96 83.08 46.08Q83.81 44.20 83.81 42.13L83.81 42.13Q83.81 40.06 83.08 38.20Q82.35 36.34 80.90 35.01Q79.44 33.68 77.26 33.23L77.26 33.23Q76.59 33.09 75.93 33.03Q75.27 32.98 74.77 32.98L74.77 32.98L62.84 32.98Z" fill="#dff350"></path></svg>