<?xml version="1.0" encoding="UTF-8"?><svg id="Layer_1" xmlns="http://www.w3.org/2000/svg" viewBox="0 0 102.382 102.382"><defs><style>.cls-1{fill:#dff350;}.cls-2{fill:#4f7157;stroke:#dff350;stroke-miterlimit:10;stroke-width:2px;}</style></defs><circle class="cls-2" cx="51.191" cy="51.191" r="50.191"/><rect class="cls-1" x="26.188" y="39.097" width="11" height="38"/><circle class="cls-1" cx="31.688" cy="26.597" r="7"/><path class="cls-1" d="M54.688,77.597h-11V39.597h11v5l1.542-1.542c.966-.966,2.081-1.77,3.303-2.38l1.682-.841c.316-.158,.642-.293,.977-.405l.869-.29c1.079-.36,2.208-.543,3.345-.543h2.811c1.618,0,3.205,.44,4.592,1.272l1.943,1.166c.622,.373,1.196,.822,1.709,1.335l.819,.819c.929,.929,1.66,2.037,2.148,3.257l.555,1.387c.466,1.165,.706,2.409,.706,3.663v26.1h-11v-19.052c0-1.29-.208-2.572-.616-3.796l-.397-1.192c-.318-.953-.904-1.793-1.688-2.42h0c-2.316-1.853-5.497-2.19-8.15-.863l-1.193,.597c-1.538,.769-2.601,2.244-2.844,3.946l-.612,4.282-.5,18.5Z"/></svg>