<?xml version="1.0" encoding="UTF-8"?><svg id="Layer_1" xmlns="http://www.w3.org/2000/svg" viewBox="0 0 278 108"><defs><style>.cls-1{fill:#dff350;}.cls-2{stroke:#000;}.cls-2,.cls-3{fill:none;stroke-miterlimit:10;}.cls-3{stroke:#e8dfce;}</style></defs><path class="cls-3" d="M142.391,8.723V45.473h-7.938V11.516l2.107,.147-15.68,33.81h-8.575l-15.681-33.712,2.059-.196V45.473h-7.889V8.723h12.788l14.799,32.732h-3.577l14.798-32.732h12.789Z"/><g><path class="cls-3" d="M34.187,52.437c2.906,0,5.422,.507,7.546,1.519,2.123,1.013,3.748,2.435,4.875,4.264s1.69,3.952,1.69,6.369-.563,4.533-1.69,6.346c-1.127,1.813-2.752,3.234-4.875,4.264-2.124,1.028-4.64,1.543-7.546,1.543H17.967v-6.86h15.778c1.927,0,3.438-.473,4.532-1.421,1.095-.947,1.642-2.237,1.642-3.871,0-1.666-.547-2.964-1.642-3.896-1.095-.931-2.605-1.396-4.532-1.396h-15.043l3.772-3.969v33.859H14.146V52.437h20.041Z"/><path class="cls-3" d="M67.751,89.921c-3.463,0-6.5-.612-9.113-1.837-2.614-1.226-4.655-2.94-6.125-5.146-1.471-2.205-2.205-4.761-2.205-7.668,0-2.94,.734-5.513,2.205-7.718,1.47-2.205,3.511-3.92,6.125-5.145,2.613-1.226,5.65-1.838,9.113-1.838s6.501,.612,9.114,1.838c2.613,1.225,4.646,2.939,6.101,5.145,1.453,2.205,2.181,4.777,2.181,7.718,0,2.907-.728,5.463-2.181,7.668-1.454,2.205-3.487,3.92-6.101,5.146-2.613,1.225-5.651,1.837-9.114,1.837Zm0-6.223c1.895,0,3.521-.343,4.876-1.029,1.355-.686,2.401-1.657,3.136-2.915,.735-1.257,1.103-2.752,1.103-4.483,0-1.765-.367-3.274-1.103-4.533-.734-1.257-1.78-2.229-3.136-2.915s-2.981-1.029-4.876-1.029c-1.861,0-3.479,.344-4.851,1.029s-2.426,1.658-3.16,2.915c-.735,1.259-1.103,2.769-1.103,4.533,0,1.731,.367,3.227,1.103,4.483,.734,1.258,1.788,2.229,3.16,2.915,1.372,.687,2.989,1.029,4.851,1.029Z"/><path class="cls-3" d="M88.478,61.306h8.281l1.666,10.045v17.836h-8.183v-18.718l-1.765-9.163Zm23.521-.294v7.056c-.85-.196-1.699-.343-2.548-.441-.851-.098-1.65-.146-2.401-.146-1.634,0-3.104,.343-4.41,1.028-1.307,.687-2.336,1.748-3.087,3.186-.752,1.438-1.127,3.251-1.127,5.438l-1.715-2.058c.196-1.992,.555-3.862,1.078-5.61,.521-1.747,1.249-3.283,2.181-4.606,.931-1.322,2.082-2.368,3.454-3.136,1.372-.767,3.005-1.151,4.9-1.151,.62,0,1.249,.041,1.886,.122,.638,.082,1.233,.188,1.789,.319Z"/><path class="cls-3" d="M113.174,67.479v-3.626l5.831-1.911,3.479-7.987h4.704v7.351h12.349v6.174h-12.349v10.143c0,2.156,.449,3.668,1.348,4.532,.898,.866,2.458,1.299,4.68,1.299,1.404,0,2.646-.13,3.724-.392s2.107-.638,3.087-1.127v6.37c-.947,.392-2.205,.759-3.772,1.103-1.568,.343-3.186,.514-4.852,.514-2.907,0-5.268-.465-7.08-1.396-1.813-.931-3.153-2.229-4.019-3.896s-1.298-3.608-1.298-5.831v-11.318h-5.831Z"/><path class="cls-3" d="M142.23,69.586v-6.174h26.068v6.174h-26.068Zm20.482-12.69c-2.287,0-3.937,.449-4.949,1.348s-1.519,2.344-1.519,4.336v26.607h-8.184v-26.068c0-2.548,.498-4.744,1.495-6.591,.996-1.845,2.515-3.274,4.557-4.287,2.041-1.012,4.581-1.519,7.619-1.519,1.404,0,2.662,.106,3.773,.318,1.11,.213,2.237,.498,3.381,.857v6.174c-.948-.392-1.928-.686-2.939-.882-1.014-.196-2.092-.294-3.234-.294Z"/><path class="cls-3" d="M186.87,89.921c-3.463,0-6.5-.612-9.113-1.837-2.614-1.226-4.655-2.94-6.125-5.146-1.471-2.205-2.205-4.761-2.205-7.668,0-2.94,.734-5.513,2.205-7.718,1.47-2.205,3.511-3.92,6.125-5.145,2.613-1.226,5.65-1.838,9.113-1.838s6.501,.612,9.114,1.838c2.613,1.225,4.646,2.939,6.101,5.145,1.453,2.205,2.181,4.777,2.181,7.718,0,2.907-.728,5.463-2.181,7.668-1.454,2.205-3.487,3.92-6.101,5.146-2.613,1.225-5.651,1.837-9.114,1.837Zm0-6.223c1.895,0,3.521-.343,4.876-1.029,1.355-.686,2.401-1.657,3.136-2.915,.735-1.257,1.103-2.752,1.103-4.483,0-1.765-.367-3.274-1.103-4.533-.734-1.257-1.78-2.229-3.136-2.915s-2.981-1.029-4.876-1.029c-1.861,0-3.479,.344-4.851,1.029s-2.426,1.658-3.16,2.915c-.735,1.259-1.103,2.769-1.103,4.533,0,1.731,.367,3.227,1.103,4.483,.734,1.258,1.788,2.229,3.16,2.915,1.372,.687,2.989,1.029,4.851,1.029Z"/><path class="cls-3" d="M209.018,51.456h8.183v37.73h-8.183V51.456Z"/><path class="cls-3" d="M227.442,58.12c-1.471,0-2.671-.384-3.602-1.151-.932-.768-1.396-1.805-1.396-3.111,0-1.274,.465-2.295,1.396-3.062,.931-.768,2.131-1.151,3.602-1.151,1.502,0,2.711,.384,3.626,1.151,.914,.768,1.372,1.788,1.372,3.062,0,1.307-.458,2.344-1.372,3.111-.915,.768-2.124,1.151-3.626,1.151Zm-4.067,2.892l4.067,.783,4.115-.783v28.175h-8.183v-28.175Z"/><path class="cls-3" d="M253.706,89.921c-3.463,0-6.5-.612-9.113-1.837-2.614-1.226-4.655-2.94-6.125-5.146-1.471-2.205-2.205-4.761-2.205-7.668,0-2.94,.734-5.513,2.205-7.718,1.47-2.205,3.511-3.92,6.125-5.145,2.613-1.226,5.65-1.838,9.113-1.838s6.501,.612,9.114,1.838c2.613,1.225,4.646,2.939,6.101,5.145,1.453,2.205,2.181,4.777,2.181,7.718,0,2.907-.728,5.463-2.181,7.668-1.454,2.205-3.487,3.92-6.101,5.146-2.613,1.225-5.651,1.837-9.114,1.837Zm0-6.223c1.895,0,3.521-.343,4.876-1.029,1.355-.686,2.401-1.657,3.136-2.915,.735-1.257,1.103-2.752,1.103-4.483,0-1.765-.367-3.274-1.103-4.533-.734-1.257-1.78-2.229-3.136-2.915s-2.981-1.029-4.876-1.029c-1.861,0-3.479,.344-4.851,1.029s-2.426,1.658-3.16,2.915c-.735,1.259-1.103,2.769-1.103,4.533,0,1.731,.367,3.227,1.103,4.483,.734,1.258,1.788,2.229,3.16,2.915,1.372,.687,2.989,1.029,4.851,1.029Z"/></g><path class="cls-2" d="M158.785,8.852V45.602h-7.938V11.645l2.107,.147-15.68,33.81h-8.575l-15.681-33.712,2.059-.196V45.602h-7.889V8.852h12.788l14.799,32.732h-3.577l14.798-32.732h12.789Z"/><g><path class="cls-2" d="M38.581,56.564c2.906,0,5.422,.508,7.546,1.52,2.123,1.013,3.748,2.434,4.875,4.264,1.127,1.829,1.69,3.952,1.69,6.369s-.563,4.533-1.69,6.346-2.752,3.234-4.875,4.264c-2.124,1.028-4.64,1.543-7.546,1.543H22.361v-6.86h15.778c1.927,0,3.438-.474,4.532-1.421s1.642-2.237,1.642-3.871c0-1.666-.547-2.965-1.642-3.896s-2.605-1.396-4.532-1.396h-15.043l3.772-3.969v33.858h-8.329V56.564h20.041Z"/><path class="cls-2" d="M72.145,94.05c-3.463,0-6.5-.612-9.113-1.837-2.614-1.226-4.655-2.94-6.125-5.146-1.471-2.205-2.205-4.761-2.205-7.669,0-2.939,.734-5.512,2.205-7.717,1.47-2.205,3.511-3.92,6.125-5.145,2.613-1.226,5.65-1.838,9.113-1.838s6.501,.612,9.114,1.838c2.613,1.225,4.646,2.939,6.101,5.145,1.453,2.205,2.181,4.777,2.181,7.717,0,2.908-.728,5.464-2.181,7.669-1.454,2.205-3.487,3.92-6.101,5.146-2.613,1.225-5.651,1.837-9.114,1.837Zm0-6.223c1.895,0,3.521-.343,4.876-1.029s2.401-1.657,3.136-2.915c.735-1.258,1.103-2.752,1.103-4.484,0-1.764-.367-3.273-1.103-4.532-.734-1.257-1.78-2.229-3.136-2.915s-2.981-1.029-4.876-1.029c-1.861,0-3.479,.344-4.851,1.029s-2.426,1.658-3.16,2.915c-.735,1.259-1.103,2.769-1.103,4.532,0,1.732,.367,3.227,1.103,4.484,.734,1.258,1.788,2.229,3.16,2.915s2.989,1.029,4.851,1.029Z"/><path class="cls-2" d="M92.872,65.434h8.281l1.666,10.045v17.836h-8.183v-18.717l-1.765-9.164Zm23.521-.293v7.055c-.85-.195-1.699-.342-2.548-.44-.851-.099-1.65-.147-2.401-.147-1.634,0-3.104,.344-4.41,1.029s-2.336,1.748-3.087,3.186c-.752,1.438-1.127,3.25-1.127,5.438l-1.715-2.058c.196-1.992,.555-3.863,1.078-5.611,.521-1.746,1.249-3.282,2.181-4.605,.931-1.322,2.082-2.368,3.454-3.136,1.372-.767,3.005-1.151,4.9-1.151,.62,0,1.249,.041,1.886,.122,.638,.082,1.233,.188,1.789,.319Z"/><path class="cls-2" d="M117.568,71.607v-3.625l5.831-1.912,3.479-7.986h4.704v7.35h12.349v6.174h-12.349v10.144c0,2.155,.449,3.667,1.348,4.532,.898,.866,2.458,1.299,4.68,1.299,1.404,0,2.646-.131,3.724-.393,1.078-.261,2.107-.637,3.087-1.127v6.371c-.947,.391-2.205,.759-3.772,1.102-1.568,.344-3.186,.515-4.852,.515-2.907,0-5.268-.466-7.08-1.396-1.813-.931-3.153-2.229-4.019-3.896s-1.298-3.609-1.298-5.831v-11.319h-5.831Z"/><path class="cls-2" d="M146.624,73.715v-6.174h26.068v6.174h-26.068Zm20.482-12.691c-2.287,0-3.937,.449-4.949,1.348-1.013,.899-1.519,2.345-1.519,4.337v26.606h-8.184v-26.067c0-2.548,.498-4.745,1.495-6.591,.996-1.845,2.515-3.274,4.557-4.287,2.041-1.012,4.581-1.52,7.619-1.52,1.404,0,2.662,.107,3.773,.318,1.11,.213,2.237,.499,3.381,.857v6.174c-.948-.391-1.928-.686-2.939-.881-1.014-.196-2.092-.295-3.234-.295Z"/><path class="cls-2" d="M191.263,94.05c-3.463,0-6.5-.612-9.113-1.837-2.614-1.226-4.655-2.94-6.125-5.146-1.471-2.205-2.205-4.761-2.205-7.669,0-2.939,.734-5.512,2.205-7.717,1.47-2.205,3.511-3.92,6.125-5.145,2.613-1.226,5.65-1.838,9.113-1.838s6.501,.612,9.114,1.838c2.613,1.225,4.646,2.939,6.101,5.145,1.453,2.205,2.181,4.777,2.181,7.717,0,2.908-.728,5.464-2.181,7.669-1.454,2.205-3.487,3.92-6.101,5.146-2.613,1.225-5.651,1.837-9.114,1.837Zm0-6.223c1.895,0,3.521-.343,4.876-1.029s2.401-1.657,3.136-2.915c.735-1.258,1.103-2.752,1.103-4.484,0-1.764-.367-3.273-1.103-4.532-.734-1.257-1.78-2.229-3.136-2.915s-2.981-1.029-4.876-1.029c-1.861,0-3.479,.344-4.851,1.029s-2.426,1.658-3.16,2.915c-.735,1.259-1.103,2.769-1.103,4.532,0,1.732,.367,3.227,1.103,4.484,.734,1.258,1.788,2.229,3.16,2.915s2.989,1.029,4.851,1.029Z"/><path class="cls-2" d="M213.412,55.585h8.183v37.729h-8.183V55.585Z"/><path class="cls-2" d="M231.835,62.249c-1.471,0-2.671-.384-3.602-1.151-.932-.768-1.396-1.805-1.396-3.111,0-1.274,.465-2.295,1.396-3.062,.931-.768,2.131-1.152,3.602-1.152,1.502,0,2.711,.385,3.626,1.152,.914,.768,1.372,1.788,1.372,3.062,0,1.307-.458,2.344-1.372,3.111-.915,.768-2.124,1.151-3.626,1.151Zm-4.067,2.892l4.067,.783,4.115-.783v28.174h-8.183v-28.174Z"/><path class="cls-2" d="M258.099,94.05c-3.463,0-6.5-.612-9.113-1.837-2.614-1.226-4.655-2.94-6.125-5.146-1.471-2.205-2.205-4.761-2.205-7.669,0-2.939,.734-5.512,2.205-7.717,1.47-2.205,3.511-3.92,6.125-5.145,2.613-1.226,5.65-1.838,9.113-1.838s6.501,.612,9.114,1.838c2.613,1.225,4.646,2.939,6.101,5.145,1.453,2.205,2.181,4.777,2.181,7.717,0,2.908-.728,5.464-2.181,7.669-1.454,2.205-3.487,3.92-6.101,5.146-2.613,1.225-5.651,1.837-9.114,1.837Zm0-6.223c1.895,0,3.521-.343,4.876-1.029s2.401-1.657,3.136-2.915c.735-1.258,1.103-2.752,1.103-4.484,0-1.764-.367-3.273-1.103-4.532-.734-1.257-1.78-2.229-3.136-2.915s-2.981-1.029-4.876-1.029c-1.861,0-3.479,.344-4.851,1.029s-2.426,1.658-3.16,2.915c-.735,1.259-1.103,2.769-1.103,4.532,0,1.732,.367,3.227,1.103,4.484,.734,1.258,1.788,2.229,3.16,2.915s2.989,1.029,4.851,1.029Z"/></g><g><path class="cls-1" d="M24.155,51.297c2.906,0,5.422,.507,7.546,1.52,2.123,1.013,3.748,2.434,4.875,4.263,1.127,1.83,1.69,3.953,1.69,6.37s-.563,4.532-1.69,6.346c-1.127,1.812-2.752,3.233-4.875,4.263-2.124,1.029-4.64,1.544-7.546,1.544H7.935v-6.86h15.778c1.927,0,3.438-.474,4.532-1.421s1.642-2.237,1.642-3.871c0-1.666-.547-2.965-1.642-3.896s-2.605-1.396-4.532-1.396H8.67l3.772-3.969v33.858H4.114V51.297H24.155Z"/><path class="cls-1" d="M57.719,88.782c-3.463,0-6.5-.612-9.113-1.838-2.614-1.225-4.655-2.939-6.125-5.145-1.471-2.205-2.205-4.761-2.205-7.669,0-2.939,.734-5.513,2.205-7.717,1.47-2.205,3.511-3.921,6.125-5.146,2.613-1.225,5.65-1.838,9.113-1.838s6.501,.613,9.114,1.838,4.646,2.94,6.101,5.146c1.453,2.204,2.181,4.777,2.181,7.717,0,2.908-.728,5.464-2.181,7.669-1.454,2.205-3.487,3.92-6.101,5.145-2.613,1.226-5.651,1.838-9.114,1.838Zm0-6.223c1.895,0,3.521-.344,4.876-1.029,1.355-.687,2.401-1.658,3.136-2.916,.735-1.257,1.103-2.751,1.103-4.483,0-1.764-.367-3.274-1.103-4.532-.734-1.257-1.78-2.229-3.136-2.915-1.355-.687-2.981-1.029-4.876-1.029-1.861,0-3.479,.343-4.851,1.029-1.372,.686-2.426,1.658-3.16,2.915-.735,1.258-1.103,2.769-1.103,4.532,0,1.732,.367,3.227,1.103,4.483,.734,1.258,1.788,2.229,3.16,2.916,1.372,.686,2.989,1.029,4.851,1.029Z"/><path class="cls-1" d="M78.446,60.166h8.281l1.666,10.045v17.836h-8.183v-18.718l-1.765-9.163Zm23.521-.294v7.056c-.85-.195-1.699-.343-2.548-.44-.851-.099-1.65-.147-2.401-.147-1.634,0-3.104,.344-4.41,1.029s-2.336,1.748-3.087,3.185c-.752,1.438-1.127,3.251-1.127,5.439l-1.715-2.058c.196-1.992,.555-3.863,1.078-5.611,.521-1.747,1.249-3.282,2.181-4.605,.931-1.323,2.082-2.368,3.454-3.136s3.005-1.152,4.9-1.152c.62,0,1.249,.042,1.886,.123,.638,.082,1.233,.188,1.789,.318Z"/><path class="cls-1" d="M103.142,66.34v-3.626l5.831-1.911,3.479-7.986h4.704v7.35h12.349v6.174h-12.349v10.144c0,2.155,.449,3.667,1.348,4.532,.898,.866,2.458,1.299,4.68,1.299,1.404,0,2.646-.131,3.724-.393,1.078-.261,2.107-.637,3.087-1.127v6.37c-.947,.392-2.205,.76-3.772,1.103-1.568,.343-3.186,.515-4.852,.515-2.907,0-5.268-.466-7.08-1.396-1.813-.931-3.153-2.229-4.019-3.896s-1.298-3.609-1.298-5.831v-11.319h-5.831Z"/><path class="cls-1" d="M132.198,68.447v-6.174h26.068v6.174h-26.068Zm20.482-12.691c-2.287,0-3.937,.449-4.949,1.348-1.013,.899-1.519,2.345-1.519,4.337v26.606h-8.184v-26.067c0-2.549,.498-4.745,1.495-6.591,.996-1.845,2.515-3.274,4.557-4.287,2.041-1.013,4.581-1.52,7.619-1.52,1.404,0,2.662,.106,3.773,.318,1.11,.213,2.237,.499,3.381,.857v6.174c-.948-.392-1.928-.686-2.939-.882-1.014-.195-2.092-.294-3.234-.294Z"/><path class="cls-1" d="M176.837,88.782c-3.463,0-6.5-.612-9.113-1.838-2.614-1.225-4.655-2.939-6.125-5.145-1.471-2.205-2.205-4.761-2.205-7.669,0-2.939,.734-5.513,2.205-7.717,1.47-2.205,3.511-3.921,6.125-5.146,2.613-1.225,5.65-1.838,9.113-1.838s6.501,.613,9.114,1.838,4.646,2.94,6.101,5.146c1.453,2.204,2.181,4.777,2.181,7.717,0,2.908-.728,5.464-2.181,7.669-1.454,2.205-3.487,3.92-6.101,5.145-2.613,1.226-5.651,1.838-9.114,1.838Zm0-6.223c1.895,0,3.521-.344,4.876-1.029,1.355-.687,2.401-1.658,3.136-2.916,.735-1.257,1.103-2.751,1.103-4.483,0-1.764-.367-3.274-1.103-4.532-.734-1.257-1.78-2.229-3.136-2.915-1.355-.687-2.981-1.029-4.876-1.029-1.861,0-3.479,.343-4.851,1.029-1.372,.686-2.426,1.658-3.16,2.915-.735,1.258-1.103,2.769-1.103,4.532,0,1.732,.367,3.227,1.103,4.483,.734,1.258,1.788,2.229,3.16,2.916,1.372,.686,2.989,1.029,4.851,1.029Z"/><path class="cls-1" d="M198.986,50.317h8.183v37.729h-8.183V50.317Z"/><path class="cls-1" d="M217.41,56.981c-1.471,0-2.671-.384-3.602-1.151-.932-.768-1.396-1.805-1.396-3.112,0-1.273,.465-2.294,1.396-3.062,.931-.767,2.131-1.151,3.602-1.151,1.502,0,2.711,.385,3.626,1.151,.914,.769,1.372,1.789,1.372,3.062,0,1.308-.458,2.345-1.372,3.112-.915,.768-2.124,1.151-3.626,1.151Zm-4.067,2.891l4.067,.784,4.115-.784v28.175h-8.183v-28.175Z"/><path class="cls-1" d="M243.673,88.782c-3.463,0-6.5-.612-9.113-1.838-2.614-1.225-4.655-2.939-6.125-5.145-1.471-2.205-2.205-4.761-2.205-7.669,0-2.939,.734-5.513,2.205-7.717,1.47-2.205,3.511-3.921,6.125-5.146,2.613-1.225,5.65-1.838,9.113-1.838s6.501,.613,9.114,1.838,4.646,2.94,6.101,5.146c1.453,2.204,2.181,4.777,2.181,7.717,0,2.908-.728,5.464-2.181,7.669-1.454,2.205-3.487,3.92-6.101,5.145-2.613,1.226-5.651,1.838-9.114,1.838Zm0-6.223c1.895,0,3.521-.344,4.876-1.029,1.355-.687,2.401-1.658,3.136-2.916,.735-1.257,1.103-2.751,1.103-4.483,0-1.764-.367-3.274-1.103-4.532-.734-1.257-1.78-2.229-3.136-2.915-1.355-.687-2.981-1.029-4.876-1.029-1.861,0-3.479,.343-4.851,1.029-1.372,.686-2.426,1.658-3.16,2.915-.735,1.258-1.103,2.769-1.103,4.532,0,1.732,.367,3.227,1.103,4.483,.734,1.258,1.788,2.229,3.16,2.916,1.372,.686,2.989,1.029,4.851,1.029Z"/></g><path class="cls-1" d="M151.361,6.297V43.047h-7.938V9.09l2.107,.147-15.68,33.81h-8.575l-15.681-33.712,2.059-.196V43.047h-7.889V6.297h12.788l14.799,32.732h-3.577l14.798-32.732h12.789Z"/></svg>