<?xml version="1.0" encoding="UTF-8"?><svg id="Layer_1" xmlns="http://www.w3.org/2000/svg" viewBox="0 0 102.382 102.382"><defs><style>.cls-1{fill:#dff350;}.cls-2{fill:#4f7157;stroke:#dff350;stroke-miterlimit:10;stroke-width:2px;}</style></defs><circle class="cls-2" cx="51.191" cy="51.191" r="50.191"/><path class="cls-1" d="M75.382,29.597c0-1.65-3.214-.659-7,0-6.469,1.126-15.982,5.832-18,7-2.206,1.276-8,4-20,9-6.969,2.904-11,5-15,7-.237,.119-.436,2.521,1,3,6,2,8,3,15,4,2.572,.367,2.931-.821,7-4,4.732-3.697,5.073-4.221,11-8,6.759-4.309,10.699-6.914,12-6,1.024,.72-.704,2.704-1,3-4,4-6,5-12,11-5.429,5.429-7.054,5.71-7,7,.087,2.077,1.46,3.759,6,7,8.994,6.42,11.54,10.492,16,10,2.495-.275,4.665-1.826,5-3,2-7,1.976-10.514,3-17,3-19,4-22,4-30Z"/></svg>