<?xml version="1.0" encoding="UTF-8"?><svg id="Layer_1" xmlns="http://www.w3.org/2000/svg" viewBox="0 0 297 96"><defs><style>.cls-1{fill:#dff350;}</style></defs><g><path class="cls-1" d="M52.927,1.267V38.017h-7.938V4.06l2.107,.147-15.68,33.81h-8.575L7.161,4.305l2.058-.196V38.017H1.33V1.267H14.119l14.798,32.732h-3.577L40.138,1.267h12.789Z"/><path class="cls-1" d="M68.263,21.896c0,1.96,.375,3.643,1.127,5.047,.751,1.405,1.854,2.492,3.307,3.259,1.453,.768,3.209,1.151,5.268,1.151,2.09,0,3.854-.383,5.292-1.151,1.437-.767,2.531-1.854,3.283-3.259,.751-1.404,1.127-3.087,1.127-5.047V1.267h8.33V22.288c0,3.3-.752,6.183-2.254,8.648-1.503,2.467-3.61,4.386-6.321,5.757-2.712,1.372-5.864,2.058-9.457,2.058s-6.737-.686-9.433-2.058c-2.695-1.372-4.802-3.291-6.321-5.757-1.519-2.466-2.278-5.349-2.278-8.648V1.267h8.33V21.896Z"/><path class="cls-1" d="M111.383,1.267V34.342l-3.773-3.675h27.587v7.35h-32.144V1.267h8.33Z"/><path class="cls-1" d="M129.415,1.267h37.534v7.35h-37.534V1.267Zm14.651,3.724h8.281V38.017h-8.281V4.991Z"/><path class="cls-1" d="M171.604,1.267h8.33V38.017h-8.33V1.267Z"/></g><g><path class="cls-1" d="M165.764,29.227v36.75h-4.41V30.305l1.764,.049-18.571,35.623h-4.851l-18.571-35.574,1.764-.049v35.623h-4.361V29.227h6.909l18.13,35.182h-2.842l18.081-35.182h6.958Z"/><path class="cls-1" d="M180.807,47.602l-2.842,17.297-2.401-2.94h28.714v4.018h-30.968l3.038-18.375-3.038-18.375h30.723v4.018h-28.469l2.401-2.891,2.842,17.248Zm22.148-1.96v3.92h-25.088v-3.92h25.088Z"/><path class="cls-1" d="M227.111,29.227c4.116,0,7.717,.776,10.804,2.328,3.087,1.552,5.496,3.708,7.228,6.468,1.731,2.761,2.597,5.954,2.597,9.58s-.866,6.819-2.597,9.58c-1.732,2.761-4.141,4.917-7.228,6.468-3.087,1.552-6.688,2.328-10.804,2.328h-15.68V29.227h15.68Zm-11.123,35.525l-2.891-2.793h14.259c3.104,0,5.839-.604,8.208-1.813,2.368-1.208,4.214-2.891,5.537-5.047,1.323-2.156,1.984-4.655,1.984-7.497,0-2.874-.661-5.381-1.984-7.521-1.323-2.139-3.169-3.813-5.537-5.022-2.369-1.208-5.104-1.813-8.208-1.813h-14.259l2.891-2.793v34.3Z"/><path class="cls-1" d="M254.551,29.227h4.557v36.75h-4.557V29.227Z"/><path class="cls-1" d="M274.199,47.602l-2.842,17.297-2.401-2.94h28.714v4.018h-30.968l3.038-18.375-3.038-18.375h30.723v4.018h-28.469l2.401-2.891,2.842,17.248Zm22.148-1.96v3.92h-25.088v-3.92h25.088Z"/></g><g><path class="cls-1" d="M68.201,59.297c4.181,0,7.848,.768,11,2.303,3.152,1.536,5.61,3.683,7.375,6.443,1.764,2.761,2.646,5.97,2.646,9.628s-.882,6.869-2.646,9.628c-1.764,2.761-4.223,4.909-7.375,6.443-3.153,1.536-6.819,2.303-11,2.303h-16.611V59.297h16.611Zm-10.143,34.496l-3.577-3.43h14.161c2.809,0,5.268-.53,7.375-1.592,2.107-1.062,3.74-2.548,4.9-4.459,1.159-1.911,1.74-4.124,1.74-6.64,0-2.548-.581-4.769-1.74-6.664-1.16-1.894-2.793-3.373-4.9-4.435-2.107-1.061-4.565-1.592-7.375-1.592h-14.161l3.577-3.43v32.242Z"/><path class="cls-1" d="M103.089,77.672l-2.597,16.415-3.087-3.626h28.518v5.586h-32.046l2.94-18.375-2.94-18.375h31.801v5.586h-28.273l3.087-3.626,2.597,16.415Zm21.413-2.695v5.39h-25.676v-5.39h25.676Z"/><path class="cls-1" d="M130.43,84.091h6.566c.196,1.47,.808,2.761,1.837,3.871,1.029,1.111,2.393,1.968,4.091,2.572,1.698,.605,3.658,.907,5.88,.907,3.299,0,5.912-.515,7.84-1.543,1.927-1.029,2.891-2.426,2.891-4.189,0-1.437-.556-2.515-1.666-3.234-1.111-.718-3.12-1.257-6.027-1.617l-7.938-1.029c-4.443-.588-7.668-1.69-9.677-3.307-2.009-1.617-3.014-3.912-3.014-6.885,0-2.254,.678-4.206,2.034-5.855,1.355-1.649,3.274-2.923,5.757-3.822,2.482-.898,5.39-1.348,8.722-1.348,3.299,0,6.223,.49,8.771,1.47,2.548,.98,4.582,2.344,6.1,4.091,1.519,1.748,2.344,3.797,2.475,6.149h-6.566c-.164-1.306-.71-2.433-1.642-3.381-.931-.947-2.18-1.69-3.749-2.229-1.568-.539-3.414-.809-5.537-.809-3.006,0-5.407,.49-7.203,1.47-1.797,.98-2.695,2.32-2.695,4.018,0,1.307,.531,2.311,1.593,3.013,1.061,.703,2.916,1.233,5.562,1.593l8.036,1.127c3.299,.458,5.904,1.07,7.815,1.837,1.911,.768,3.274,1.797,4.091,3.087,.816,1.291,1.225,2.948,1.225,4.974,0,2.352-.719,4.41-2.156,6.174s-3.454,3.128-6.051,4.092c-2.597,.963-5.627,1.445-9.089,1.445-3.528,0-6.64-.531-9.334-1.593-2.695-1.061-4.827-2.54-6.395-4.434-1.568-1.895-2.418-4.099-2.548-6.615Z"/><path class="cls-1" d="M172.031,59.297h6.468v36.75h-6.468V59.297Z"/><path class="cls-1" d="M223.53,80.073c-.033,2.287-.474,4.435-1.323,6.444-.85,2.009-2.058,3.781-3.626,5.316-1.568,1.536-3.471,2.736-5.708,3.602-2.238,.865-4.794,1.298-7.668,1.298-2.908,0-5.603-.441-8.085-1.323-2.483-.882-4.647-2.147-6.492-3.797-1.846-1.649-3.275-3.65-4.288-6.002-1.013-2.352-1.519-4.998-1.519-7.938s.515-5.586,1.543-7.938,2.475-4.353,4.336-6.002c1.862-1.649,4.05-2.916,6.566-3.797,2.515-.882,5.275-1.323,8.281-1.323,3.756,0,7.047,.612,9.874,1.837,2.825,1.225,5.104,2.899,6.835,5.022,1.731,2.124,2.793,4.557,3.185,7.301h-6.566c-.359-1.731-1.135-3.234-2.327-4.508-1.193-1.274-2.72-2.254-4.582-2.94-1.862-.686-4.018-1.029-6.468-1.029-2.875,0-5.365,.531-7.472,1.592-2.107,1.062-3.741,2.589-4.9,4.582-1.16,1.993-1.74,4.394-1.74,7.203s.596,5.227,1.789,7.252c1.192,2.026,2.882,3.577,5.071,4.655,2.188,1.078,4.769,1.617,7.742,1.617,2.874,0,5.39-.49,7.546-1.47,2.156-.98,3.854-2.344,5.096-4.092,1.241-1.747,1.911-3.781,2.009-6.101l2.891,.539Zm-16.268,2.793v-4.9h18.571v18.081h-4.802l-.784-15.239,1.519,2.058h-14.504Z"/><path class="cls-1" d="M267.14,92.127l-2.646,.294V59.297h6.272v36.75h-8.232l-25.774-33.124,2.597-.294v33.418h-6.272V59.297h8.428l25.627,32.83Z"/></g></svg>